<svg width="32" height="32" viewBox="0 0 32 32" fill="none" xmlns="http://www.w3.org/2000/svg">
<g clip-path="url(#clip0_863_143)">
<path d="M28.2713 21.2586H27.1875V20.3023H28.2713C29.0363 20.3023 29.6738 19.6648 29.6738 18.8998V12.2061C29.6738 10.9948 28.6538 9.97483 27.4425 9.97483H20.43C19.2188 9.97483 18.1988 10.9948 18.1988 12.2061V18.8998C18.1988 19.6648 18.8363 20.3023 19.6013 20.3023H20.685V21.2586H19.6013C18.2625 21.2586 17.2425 20.1748 17.2425 18.8998V12.2061C17.2425 10.4211 18.645 9.01858 20.43 9.01858H27.5063C29.2913 9.01858 30.6938 10.4211 30.6938 12.2061V18.8998C30.6938 20.2386 29.61 21.2586 28.2713 21.2586ZM23.9363 7.99858C22.0238 7.99858 20.43 6.40483 20.43 4.49233C20.43 2.57983 22.0238 0.986084 23.9363 0.986084C25.8488 0.986084 27.4425 2.57983 27.4425 4.49233C27.4425 6.40483 25.9125 7.99858 23.9363 7.99858ZM23.9363 2.00608C22.5338 2.00608 21.3863 3.15358 21.3863 4.55608C21.3863 5.95858 22.5338 7.10608 23.9363 7.10608C25.3388 7.10608 26.4863 5.95858 26.4863 4.55608C26.4863 3.15358 25.3388 2.00608 23.9363 2.00608Z" fill="#F5F5F4"/>
<path d="M25.5938 30.6935C24.9563 30.6935 24.3825 30.3748 24 29.9285C23.6175 30.3748 23.0438 30.6935 22.4063 30.6935C21.2588 30.6935 20.3025 29.7373 20.3025 28.5898V13.0348H21.2588V28.5898C21.2588 29.2273 21.7688 29.7373 22.4063 29.7373C23.0438 29.7373 23.49 29.1635 23.49 28.5898V20.8123H24.4463V28.5898C24.4463 29.2273 24.9563 29.7373 25.5938 29.7373C26.2313 29.7373 26.7413 29.2273 26.7413 28.5898V13.0348H27.6975V28.5898C27.6975 29.7373 26.7413 30.6935 25.5938 30.6935Z" fill="#F5F5F4"/>
<path d="M18.7088 24.0636H1.05V4.04614H19.0275V5.00239H2.00625V23.1074H18.7088V24.0636Z" fill="#F5F5F4"/>
<path d="M15.585 12.9712H4.62002V13.9274H15.585V12.9712Z" fill="#F5F5F4"/>
<path d="M15.585 16.2224H4.62002V17.1787H15.585V16.2224Z" fill="#F5F5F4"/>
<path d="M15.585 19.5374H4.62002V20.4936H15.585V19.5374Z" fill="#F5F5F4"/>
</g>
<defs>
<clipPath id="clip0_863_143">
<rect width="30.6" height="30.6" fill="white" transform="translate(0.540016 0.539917)"/>
</clipPath>
</defs>
</svg>
