<svg width="310" height="306" viewBox="0 0 310 306" fill="none" xmlns="http://www.w3.org/2000/svg">
<path d="M155.015 94.2014C188.155 94.2014 215.009 120.707 215.009 153.39C215.009 186.073 188.156 212.579 155.015 212.579C121.875 212.579 95.0212 186.073 95.0212 153.39C95.0213 120.707 121.875 94.2015 155.015 94.2014Z" stroke="#00B8FF" stroke-opacity="0.25"/>
<path d="M155.389 56.6196C209.771 56.6198 253.845 100.116 253.845 153.758C253.845 207.4 209.771 250.898 155.389 250.898C101.007 250.898 56.9322 207.4 56.9322 153.758C56.9324 100.116 101.007 56.6196 155.389 56.6196Z" stroke="#00B8FF" stroke-opacity="0.25"/>
<path d="M155.016 27.1438C225.69 27.1439 282.972 83.6724 282.973 153.39C282.973 223.108 225.69 279.637 155.016 279.637C84.3405 279.637 27.0585 223.108 27.0585 153.39C27.0587 83.6724 84.3407 27.1438 155.016 27.1438Z" stroke="#00B8FF" stroke-opacity="0.25"/>
<path d="M155.016 1.35242C240.127 1.35258 309.111 69.4287 309.111 153.391C309.111 237.352 240.127 305.428 155.016 305.429C69.9043 305.429 0.919073 237.352 0.919006 153.391C0.919006 69.4286 69.9043 1.35242 155.016 1.35242Z" stroke="#00B8FF" stroke-opacity="0.25"/>
</svg>
