<svg width="37" height="37" viewBox="0 0 37 37" fill="none" xmlns="http://www.w3.org/2000/svg">
<g clip-path="url(#clip0_863_156)">
<path d="M21.6797 28.9969H15.3797L14.6297 26.9719H3.30472V7.69687C3.30472 6.79687 4.05472 6.04688 4.95472 6.04688H33.0047C33.9047 6.04688 34.6547 6.79687 34.6547 7.69687V27.0469H23.1797L21.6797 28.9969ZM16.2047 27.8719H21.1547L22.6547 25.8469H33.5297V7.69687C33.5297 7.39687 33.3047 7.17188 33.0047 7.17188H4.95472C4.65472 7.17188 4.42972 7.39687 4.42972 7.69687V25.9219H15.4547L16.2047 27.8719Z" fill="white"/>
<path d="M31.5797 31.2468H6.3797C3.6797 31.2468 1.5047 29.0718 1.5047 26.3718V25.7719H15.3797L16.1297 27.7969H21.0797L22.5797 25.7719H36.3797V26.3718C36.4547 29.0718 34.2047 31.2468 31.5797 31.2468ZM2.7047 26.9718C3.0047 28.7718 4.5047 30.1218 6.3797 30.1218H31.5047C33.3797 30.1218 34.9547 28.7718 35.1797 26.9718H23.1797L21.6797 28.9968H15.3797L14.6297 26.9718H2.7047Z" fill="white"/>
<path d="M13.5047 10.0219H7.72971V15.0469H13.5047V10.0219Z" fill="white"/>
<path d="M14.0297 15.5719H7.1297V9.42188H14.0297V15.5719ZM8.2547 14.4469H12.9047V10.5469H8.2547V14.4469Z" fill="white"/>
<path d="M13.5047 17.9718H7.72971V22.9968H13.5047V17.9718Z" fill="white"/>
<path d="M14.0297 23.5969H7.1297V17.4469H14.0297V23.5969ZM8.2547 22.4719H12.9047V18.5719H8.2547V22.4719Z" fill="white"/>
<path d="M30.5297 11.8969H17.1047V13.0219H30.5297V11.8969Z" fill="white"/>
<path d="M30.5297 19.9219H17.1047V21.0469H30.5297V19.9219Z" fill="white"/>
</g>
<defs>
<clipPath id="clip0_863_156">
<rect width="36" height="36" fill="white" transform="translate(0.979706 0.646851)"/>
</clipPath>
</defs>
</svg>
