<svg width="81" height="81" viewBox="0 0 81 81" fill="none" xmlns="http://www.w3.org/2000/svg">
<path fill-rule="evenodd" clip-rule="evenodd" d="M40.5 8.35999C36.2977 8.35998 32.1366 9.18769 28.2541 10.7958C24.3717 12.404 20.8441 14.7611 17.8726 17.7326C14.9011 20.704 12.544 24.2317 10.9359 28.1141C9.32771 31.9965 8.5 36.1577 8.5 40.36C8.5 44.5623 9.3277 48.7234 10.9358 52.6058C12.544 56.4883 14.9011 60.0159 17.8726 62.9874C20.844 65.9589 24.3717 68.316 28.2541 69.9241C32.1365 71.5323 36.2977 72.36 40.5 72.36C44.7023 72.36 48.8634 71.5323 52.7459 69.9241C56.6283 68.316 60.1559 65.9589 63.1274 62.9874C66.0989 60.0159 68.456 56.4883 70.0641 52.6059C71.6723 48.7234 72.5 44.5623 72.5 40.36C72.5 36.1577 71.6723 31.9965 70.0641 28.1141C68.456 24.2317 66.0989 20.704 63.1274 17.7326C60.1559 14.7611 56.6283 12.404 52.7459 10.7958C48.8635 9.18769 44.7023 8.35999 40.5 8.35999ZM25.1927 3.40479C30.0457 1.39461 35.2472 0.359982 40.5 0.359985C45.7529 0.359985 50.9543 1.39462 55.8073 3.4048C60.6604 5.41499 65.0699 8.36137 68.7843 12.0757C72.4986 15.7901 75.445 20.1996 77.4552 25.0527C79.4654 29.9057 80.5 35.1071 80.5 40.36C80.5 45.6129 79.4654 50.8143 77.4552 55.6673C75.445 60.5204 72.4986 64.9299 68.7843 68.6443C65.0699 72.3586 60.6604 75.305 55.8073 77.3152C50.9543 79.3254 45.7529 80.36 40.5 80.36C35.2471 80.36 30.0457 79.3253 25.1926 77.3152C20.3396 75.305 15.9301 72.3586 12.2157 68.6442C8.50138 64.9299 5.555 60.5203 3.54481 55.6673C1.53463 50.8143 0.499997 45.6128 0.5 40.36C0.500003 35.1071 1.53464 29.9057 3.54483 25.0526C5.55502 20.1996 8.5014 15.79 12.2157 12.0757C15.9301 8.36136 20.3397 5.41498 25.1927 3.40479Z" fill="#EAECF0"/>
<path fill-rule="evenodd" clip-rule="evenodd" d="M36.5 4.35999C36.5 2.15085 38.2909 0.359985 40.5 0.359985C48.9472 0.359985 57.1775 3.03418 64.0114 7.99931C70.8453 12.9644 75.9319 19.9656 78.5423 27.9993C81.1526 36.033 81.1526 44.6869 78.5423 52.7207C75.9319 60.7544 70.8453 67.7555 64.0114 72.7207C62.2242 74.0192 59.7227 73.623 58.4242 71.8357C57.1257 70.0485 57.5219 67.547 59.3091 66.2485C64.7762 62.2764 68.8456 56.6755 70.9338 50.2485C73.0221 43.8215 73.0221 36.8984 70.9338 30.4714C68.8456 24.0445 64.7763 18.4435 59.3091 14.4714C53.842 10.4993 47.2577 8.35999 40.5 8.35999C38.2909 8.35999 36.5 6.56912 36.5 4.35999Z" fill="#00B8FF"/>
</svg>
