<svg width="61" height="60" viewBox="0 0 61 60" fill="none" xmlns="http://www.w3.org/2000/svg">
<g opacity="0.4">
<rect x="0.0585938" width="60" height="60" rx="30" fill="black"/>
<g clip-path="url(#clip0_1041_1533)">
<path d="M44.3011 15H15.8155C15.3986 15 15.0675 15.3372 15.0675 15.748V29.4083C15.0675 29.8253 15.4047 30.1563 15.8155 30.1563C16.2263 30.1563 16.5697 29.8191 16.5697 29.4083V16.5021H43.5592V43.4917H30.5672C30.1503 43.4917 29.8131 43.8289 29.8131 44.2459C29.8131 44.6628 30.1503 45 30.5672 45H44.3011C44.718 45 45.0553 44.6628 45.0553 44.2459V15.7541C45.0553 15.3372 44.718 15 44.3011 15Z" fill="white"/>
<path d="M15.0617 44.2398C15.0617 44.6567 15.3989 44.9939 15.8097 44.9939H26.2572C26.6742 44.9939 27.0114 44.6567 27.0114 44.2398V33.7983C27.0114 33.3814 26.6742 33.0442 26.2572 33.0442H15.8158C15.3989 33.0442 15.0678 33.3814 15.0678 33.7983V44.2398H15.0617ZM16.5638 34.5463H25.5092V43.4918H16.5638V34.5463Z" fill="white"/>
<path d="M28.7277 31.3273C28.8748 31.4745 29.0649 31.5481 29.2611 31.5481C29.4573 31.5481 29.6474 31.4745 29.7945 31.3273L38.2924 22.8233V27.7222C38.2924 28.1391 38.6296 28.4763 39.0465 28.4763C39.4634 28.4763 39.8007 28.1391 39.8007 27.7222V21.0146C39.8007 20.5977 39.4634 20.2605 39.0465 20.2605H32.3328C31.9159 20.2605 31.5787 20.5977 31.5787 21.0146C31.5787 21.4316 31.9159 21.7688 32.3328 21.7688H37.2317L28.7277 30.2666C28.4334 30.5609 28.4334 31.033 28.7277 31.3273Z" fill="white"/>
</g>
</g>
<defs>
<clipPath id="clip0_1041_1533">
<rect width="30" height="30" fill="white" transform="translate(15.0586 15)"/>
</clipPath>
</defs>
</svg>
