<svg width="20" height="21" viewBox="0 0 20 21" fill="none" xmlns="http://www.w3.org/2000/svg">
<path d="M10.7301 15.2025L14.5101 17.6025C14.9976 17.91 15.5976 17.4525 15.4551 16.89L14.3601 12.585C14.3305 12.4657 14.3352 12.3404 14.3737 12.2237C14.4121 12.1069 14.4828 12.0034 14.5776 11.925L17.9676 9.09752C18.4101 8.73002 18.1851 7.98752 17.6076 7.95002L13.1826 7.66502C13.0618 7.65799 12.9458 7.61595 12.8485 7.54403C12.7513 7.4721 12.6771 7.37341 12.6351 7.26002L10.9851 3.10502C10.9414 2.98495 10.8618 2.88122 10.7572 2.80793C10.6525 2.73463 10.5278 2.69531 10.4001 2.69531C10.2723 2.69531 10.1476 2.73463 10.043 2.80793C9.93831 2.88122 9.85875 2.98495 9.81507 3.10502L8.16507 7.26002C8.12302 7.37341 8.04884 7.4721 7.95161 7.54403C7.85438 7.61595 7.73831 7.65799 7.61757 7.66502L3.19257 7.95002C2.61507 7.98752 2.39007 8.73002 2.83257 9.09752L6.22257 11.925C6.31732 12.0034 6.38801 12.1069 6.42649 12.2237C6.46497 12.3404 6.46968 12.4657 6.44007 12.585L5.42757 16.575C5.25507 17.25 5.97507 17.7975 6.55257 17.43L10.0701 15.2025C10.1687 15.1398 10.2832 15.1065 10.4001 15.1065C10.517 15.1065 10.6314 15.1398 10.7301 15.2025V15.2025Z" fill="#FEC84B"/>
</svg>
